<svg xmlns="http://www.w3.org/2000/svg" viewBox="0 0 260 60" width="260" height="60">
  <!-- Skin layer icon -->
  <g transform="translate(6, 8)">
    <path d="M22 4C14 4 8 10 8 18c0 6 3 11 8 14v6c0 1.5 1 3 3 3h6c2 0 3-1.5 3-3v-6c5-3 8-8 8-14 0-8-6-14-14-14z" fill="#e53e3e" opacity="0.15"/>
    <path d="M22 8c-5.5 0-10 4.5-10 10s4.5 10 10 10 10-4.5 10-10S27.5 8 22 8z" fill="none" stroke="#e53e3e" stroke-width="2.5"/>
    <text x="22" y="23" text-anchor="middle" font-family="'Segoe UI',Arial,sans-serif" font-size="15" font-weight="800" fill="#e53e3e">V3</text>
  </g>
  <!-- Text -->
  <text x="56" y="28" font-family="'Segoe UI',Arial,sans-serif" font-size="22" font-weight="800" fill="#e53e3e">V3</text>
  <text x="84" y="28" font-family="'Segoe UI',Arial,sans-serif" font-size="22" font-weight="800" fill="#0b4f8a"> Derma Clinic</text>
  <text x="56" y="46" font-family="'Segoe UI',Arial,sans-serif" font-size="10" fill="#718096" letter-spacing="3.5">SKIN · HAIR · LASER</text>
</svg>
